<svg width="145" height="143" viewBox="0 0 145 143" fill="none" xmlns="http://www.w3.org/2000/svg">
<rect width="145" height="143" rx="71.5" fill="#EADDFF"/>
<path fill-rule="evenodd" clip-rule="evenodd" d="M94.2509 57.2C94.2509 69.0465 84.5131 78.65 72.5009 78.65C60.4887 78.65 50.7509 69.0465 50.7509 57.2C50.7509 45.3535 60.4887 35.75 72.5009 35.75C84.5131 35.75 94.2509 45.3535 94.2509 57.2ZM87.0009 57.2C87.0009 65.0977 80.509 71.5 72.5009 71.5C64.4928 71.5 58.0009 65.0977 58.0009 57.2C58.0009 49.3023 64.4928 42.9 72.5009 42.9C80.509 42.9 87.0009 49.3023 87.0009 57.2Z" fill="#4F378A"/>
<path d="M72.5009 89.375C49.0312 89.375 29.0345 103.062 21.4172 122.237C23.2729 124.054 25.2276 125.773 27.2728 127.385C32.945 109.78 50.739 96.525 72.5009 96.525C94.2628 96.525 112.057 109.78 117.729 127.385C119.774 125.773 121.729 124.054 123.585 122.237C115.967 103.062 95.9706 89.375 72.5009 89.375Z" fill="#4F378A"/>
</svg>
